<svg width="36" height="36" viewBox="0 0 36 36" fill="none" xmlns="http://www.w3.org/2000/svg">
<path d="M5.56114 4.98944C2.98789 7.44961 1.20196 10.6176 0.429182 14.0928C-0.343593 17.568 -0.0685047 21.1942 1.21966 24.5131C2.50783 27.8319 4.75122 30.6942 7.66614 32.7381C10.5811 34.7819 14.0366 35.9155 17.5957 35.9955C21.1549 36.0754 24.6579 35.0982 27.6616 33.1873C30.6654 31.2764 33.035 28.5177 34.4709 25.26C35.9068 22.0024 36.3445 18.3921 35.7285 14.8857C35.1126 11.3794 33.4707 8.13438 31.0106 5.56113L26.9632 9.43063C28.6581 11.2034 29.7892 13.4389 30.2135 15.8545C30.6379 18.2701 30.3364 20.7573 29.3471 23.0016C28.3579 25.2458 26.7254 27.1464 24.6561 28.4628C22.5867 29.7792 20.1735 30.4525 17.7215 30.3974C15.2695 30.3423 12.8889 29.5614 10.8808 28.1534C8.87266 26.7453 7.32715 24.7734 6.4397 22.487C5.55226 20.2006 5.36275 17.7024 5.89513 15.3082C6.42751 12.9141 7.65787 10.7316 9.43063 9.03677L5.56114 4.98944Z" fill="#1D5872"/>
<circle cx="18" cy="18" r="10" transform="rotate(-90 18 18)" fill="#1D5872"/>
</svg>
