<svg width="36" height="36" viewBox="0 0 36 36" fill="none" xmlns="http://www.w3.org/2000/svg">
<path d="M30.4389 31.0106C33.0121 28.5504 34.798 25.3824 35.5708 21.9072C36.3436 18.432 36.0685 14.8058 34.7803 11.4869C33.4922 8.16808 31.2488 5.30576 28.3339 3.26191C25.4189 1.21807 21.9634 0.0844934 18.4043 0.00454C14.8451 -0.0754134 11.3421 0.901844 8.33838 2.81273C5.33462 4.72362 2.96497 7.48231 1.52906 10.74C0.0931625 13.9976 -0.34449 17.6079 0.271454 21.1143C0.887394 24.6206 2.52927 27.8656 4.98944 30.4389L9.03677 26.5694C7.34191 24.7966 6.2108 22.5611 5.78646 20.1455C5.36213 17.7299 5.66364 15.2427 6.65285 12.9984C7.64207 10.7542 9.27458 8.85365 11.3439 7.5372C13.4133 6.22075 15.8265 5.5475 18.2785 5.60258C20.7305 5.65766 23.1111 6.4386 25.1192 7.84665C27.1273 9.25469 28.6729 11.2266 29.5603 13.513C30.4477 15.7994 30.6373 18.2976 30.1049 20.6918C29.5725 23.0859 28.3421 25.2684 26.5694 26.9632L30.4389 31.0106Z" fill="#16BBCA"/>
<circle cx="18" cy="18" r="10" transform="rotate(90 18 18)" fill="#16BBCA"/>
</svg>
