<svg width="36" height="36" viewBox="0 0 36 36" fill="none" xmlns="http://www.w3.org/2000/svg">
<path d="M31.1516 30.2896C33.5549 27.7177 35.1514 24.4976 35.7435 21.0278C36.3356 17.5579 35.8974 13.9906 34.483 10.7673C33.0686 7.54397 30.7401 4.80608 27.7858 2.89242C24.8314 0.978762 21.3808 -0.0266733 17.8609 0.000537092C14.341 0.0277475 10.9063 1.0864 7.98186 3.0455C5.05743 5.0046 2.77159 7.77817 1.40719 11.023C0.0427984 14.2678 -0.340264 17.8414 0.305406 21.3017C0.951077 24.762 2.59714 27.957 5.03991 30.4914L9.0784 26.599C7.39682 24.8543 6.26369 22.6549 5.81921 20.2729C5.37474 17.8909 5.63844 15.4308 6.57767 13.1971C7.51691 10.9634 9.09046 9.0541 11.1036 7.70547C13.1168 6.35684 15.4812 5.62807 17.9042 5.60934C20.3273 5.59061 22.7027 6.28274 24.7364 7.60009C26.7702 8.91743 28.3731 10.8022 29.3467 13.0211C30.3204 15.24 30.6221 17.6957 30.2145 20.0843C29.8069 22.4729 28.7079 24.6896 27.0535 26.46L31.1516 30.2896Z" fill="#F68B27"/>
<circle cx="18" cy="18" r="10" transform="rotate(-90 18 18)" fill="#F68B27"/>
</svg>
