<svg width="36" height="36" viewBox="0 0 36 36" fill="none" xmlns="http://www.w3.org/2000/svg">
<path d="M30.3496 31.0953C32.961 28.6327 34.7764 25.4455 35.5628 21.9433C36.3491 18.441 36.0704 14.7837 34.7625 11.4411C33.4545 8.09842 31.1771 5.22315 28.2227 3.18461C25.2684 1.14608 21.772 0.0373716 18.1828 0.000926177C14.5935 -0.0355193 11.0754 1.00196 8.08021 2.98008C5.08506 4.95821 2.74971 7.78664 1.37418 11.102C-0.00136295 14.4174 -0.354271 18.0684 0.360785 21.5858C1.07584 25.1033 2.82621 28.3267 5.38702 30.8418L9.28311 26.8751C7.51332 25.1368 6.30363 22.9091 5.80945 20.4782C5.31527 18.0472 5.55917 15.5241 6.50981 13.2328C7.46045 10.9415 9.07442 8.98675 11.1444 7.61966C13.2144 6.25257 15.6458 5.53557 18.1263 5.56075C20.6068 5.58594 23.0232 6.35217 25.065 7.76101C27.1068 9.16986 28.6807 11.157 29.5846 13.4671C30.4885 15.7772 30.6812 18.3048 30.1377 20.7252C29.5943 23.1456 28.3396 25.3483 26.5349 27.0502L30.3496 31.0953Z" fill="#F2B311"/>
<circle cx="18" cy="18" r="10" transform="rotate(-90 18 18)" fill="#F1AD04"/>
</svg>
