<svg width="36" height="36" viewBox="0 0 36 36" fill="none" xmlns="http://www.w3.org/2000/svg">
<path d="M5.27207 5.27208C2.72846 7.81569 1.00532 11.0631 0.324917 14.5954C-0.355481 18.1277 0.0380801 21.7828 1.45483 25.0893C2.87159 28.3957 5.24654 31.2019 8.27333 33.1457C11.3001 35.0895 14.8399 36.0819 18.4361 35.9947C22.0322 35.9076 25.5198 34.7449 28.4489 32.6568C31.378 30.5686 33.6142 27.6507 34.8691 24.2795C36.1241 20.9083 36.3401 17.2384 35.4894 13.7432C34.6387 10.248 32.7603 7.08793 30.0965 4.6705L26.3595 8.78839C28.2004 10.459 29.4985 12.6429 30.0864 15.0583C30.6743 17.4737 30.525 20.0098 29.6577 22.3396C28.7905 24.6693 27.2451 26.6858 25.2209 28.1289C23.1967 29.5719 20.7866 30.3754 18.3014 30.4356C15.8162 30.4958 13.3699 29.81 11.2782 28.4667C9.18647 27.1234 7.54521 25.1842 6.56614 22.8992C5.58706 20.6142 5.31508 18.0882 5.78529 15.6472C6.25549 13.2061 7.4463 10.9619 9.20412 9.20412L5.27207 5.27208Z" fill="#EF4757"/>
<circle cx="18" cy="18" r="10" transform="rotate(-90 18 18)" fill="#EF4858"/>
</svg>
